<svg height="512" width="512" xmlns="http://www.w3.org/2000/svg"><path d="M462.725 234.127h-49.059l1.339 44h42.989v37.49c0 46.735-76.284 100.109-76.284 100.109l-5.792 2.531-26.924 52.577 49.248-13.76c61.336-17.137 103.752-73.027 103.752-136.712v-46.965c.001-21.689-17.581-39.27-39.269-39.27z" fill="#bfdbff"/><path d="M319.422 502c59.018-58.43 95.583-139.496 95.583-229.106 0-20.116-1.852-39.798-5.377-58.894H69.372a324.203 324.203 0 00-5.377 58.894c0 89.61 36.565 170.677 95.583 229.106z" fill="#dfedff"/><path d="M157.44 472.523c31.474-31.474 38.062-77.532 18.224-110.483-4.915-8.164-16.238-9.473-22.976-2.735L44.222 467.772c-6.738 6.738-5.429 18.061 2.735 22.976 32.952 19.837 79.009 13.25 110.483-18.225z" fill="#d1a184"/><path d="M39.471 354.554c31.474-31.474 77.532-38.062 110.483-18.224 8.164 4.915 9.473 16.238 2.735 22.976L44.222 467.772c-6.738 6.738-18.061 5.429-22.976-2.735-19.837-32.951-13.249-79.009 18.225-110.483z" fill="#c68a65"/><path d="M462.725 224.127h-41.306a332.603 332.603 0 00-1.958-11.942 10.001 10.001 0 00-9.834-8.185H284.5c-5.522 0-10 4.477-10 10s4.478 10 10 10h116.692a315.714 315.714 0 013.813 48.894c0 82.663-31.835 160.309-89.732 219.106H163.728a320.081 320.081 0 01-5.942-6.211 113.841 113.841 0 006.725-6.193c16.567-16.567 27.633-37.944 31.159-60.193 3.521-22.214-.542-44.417-11.439-62.518-3.82-6.347-10.174-10.552-17.494-11.626-1.074-7.321-5.28-13.674-11.626-17.494-18.103-10.898-40.308-14.961-62.519-11.439-5.083.806-10.116 2.023-15.061 3.592a315.976 315.976 0 01-3.537-47.022c0-16.366 1.281-32.774 3.813-48.894H194.5c5.523 0 10-4.477 10-10s-4.477-10-10-10H69.372a10 10 0 00-9.834 8.185 335.303 335.303 0 00-.985 115.811A113.292 113.292 0 0032.4 347.485C15.833 364.05 4.767 385.427 1.24 407.676c-3.521 22.214.542 44.417 11.439 62.518 3.82 6.347 10.174 10.552 17.494 11.626 1.074 7.321 5.28 13.674 11.626 17.494 13.851 8.338 30.102 12.675 46.922 12.675 5.163 0 10.38-.409 15.597-1.236 12.883-2.042 25.467-6.626 37-13.328a336.876 336.876 0 0011.223 11.68 10.001 10.001 0 007.036 2.894h159.845a9.997 9.997 0 007.035-2.894 336.058 336.058 0 0025.944-28.842l48.532-13.56c32.216-9 59.932-27.842 80.152-54.487 20.221-26.645 30.909-58.408 30.909-91.857v-46.964c.001-27.166-22.102-49.268-49.269-49.268zM46.542 361.625c27.445-27.446 68.766-34.48 98.255-16.728 1.658.998 2.077 2.55 2.179 3.386.105.863.069 2.523-1.358 3.951L37.151 460.701c-1.427 1.428-3.086 1.464-3.951 1.358-.836-.102-2.388-.521-3.386-2.18-17.752-29.487-10.717-70.809 16.728-98.254zm5.572 120.555c-1.658-.998-2.077-2.55-2.179-3.386-.105-.863-.069-2.523 1.358-3.951L159.76 366.377a4.641 4.641 0 013.351-1.395c.226 0 .429.016.6.037.836.102 2.388.521 3.386 2.18 17.752 29.487 10.717 70.81-16.728 98.254-27.444 27.445-68.767 34.478-98.255 16.727zm395.881-194.053v27.49c0 33.957-18.451 64.717-46.885 81.21 13.966-34.705 21.861-71.174 23.54-108.7zm44 32.234c0 58.959-39.659 111.216-96.443 127.081l-24.315 6.794a330.058 330.058 0 0017.471-30.163c46.906-14.944 79.287-58.902 79.287-108.457v-37.49c0-5.523-4.478-10-10-10h-33.044a336.235 336.235 0 00-1.198-24h38.972c16.14 0 29.27 13.13 29.27 29.27zM191.998 113.929c-3.905 3.905-3.905 10.237 0 14.142 1.953 1.953 4.512 2.929 7.071 2.929s5.119-.977 7.071-2.929c19.2-19.201 19.2-50.442 0-69.642-5.524-5.523-8.566-12.868-8.566-20.679 0-7.812 3.042-15.155 8.565-20.679 3.905-3.905 3.906-10.237 0-14.142s-10.237-3.905-14.142 0c-9.301 9.301-14.424 21.667-14.424 34.821 0 13.153 5.123 25.52 14.423 34.821 11.404 11.402 11.404 29.955.002 41.358zm89.427 19.321c0 7.811-3.042 15.155-8.565 20.679-3.905 3.905-3.905 10.237 0 14.143 1.953 1.953 4.512 2.929 7.071 2.929s5.118-.976 7.071-2.929c9.301-9.301 14.423-21.668 14.423-34.821 0-13.154-5.122-25.52-14.423-34.821-5.523-5.523-8.565-12.868-8.565-20.679 0-7.812 3.041-15.155 8.565-20.679 3.905-3.905 3.905-10.237 0-14.142s-10.235-3.905-14.143 0c-9.301 9.301-14.423 21.667-14.423 34.821 0 13.153 5.122 25.52 14.423 34.821 5.525 5.522 8.566 12.866 8.566 20.678z"/><path d="M239.505 224c2.63 0 5.21-1.07 7.07-2.93s2.93-4.44 2.93-7.07-1.07-5.21-2.93-7.07a10.093 10.093 0 00-7.07-2.93c-2.64 0-5.22 1.07-7.08 2.93s-2.92 4.44-2.92 7.07 1.06 5.21 2.92 7.07a10.084 10.084 0 007.08 2.93z"/></svg>